<svg width="24" height="24" viewBox="0 0 24 24" fill="none" xmlns="http://www.w3.org/2000/svg">
<path d="M22.1115 6.468L14.6115 2.343C14.5008 2.28208 14.3764 2.25013 14.25 2.25013C14.1236 2.25013 13.9993 2.28208 13.8885 2.343L6.38851 6.468C6.27092 6.53274 6.17286 6.62786 6.10457 6.74343C6.03627 6.85899 6.00024 6.99077 6.00024 7.125C6.00024 7.25924 6.03627 7.39101 6.10457 7.50658C6.17286 7.62214 6.27092 7.71726 6.38851 7.782L13.5 11.6933V19.7325L11.223 18.48L10.5 19.7933L13.8885 21.657C13.9992 21.7181 14.1236 21.7501 14.25 21.7501C14.3764 21.7501 14.5008 21.7181 14.6115 21.657L22.1115 17.532C22.2291 17.4673 22.3273 17.3722 22.3956 17.2566C22.4639 17.1411 22.5 17.0093 22.5 16.875V7.125C22.5 6.99074 22.4639 6.85895 22.3956 6.74338C22.3273 6.62782 22.2291 6.53271 22.1115 6.468ZM14.25 3.8565L20.1938 7.125L14.25 10.3935L8.30626 7.125L14.25 3.8565ZM21 16.4318L15 19.7318V11.6925L21 8.3925V16.4318Z" fill="black"/>
<path d="M7.5 12H1.5V10.5H7.5V12ZM9 18H3V16.5H9V18ZM10.5 15H4.5V13.5H10.5V15Z" fill="black"/>
</svg>
