<svg width="24" height="24" viewBox="0 0 24 24" fill="none" xmlns="http://www.w3.org/2000/svg">
<g clip-path="url(#clip0_494_71)">
<path d="M21.5 3.99995H18.8333V5.99995C18.8333 6.19256 18.7954 6.38328 18.7217 6.56122C18.648 6.73917 18.5399 6.90085 18.4037 7.03705C18.2675 7.17324 18.1058 7.28127 17.9279 7.35498C17.75 7.42868 17.5592 7.46662 17.3666 7.46662C17.174 7.46662 16.9833 7.42868 16.8054 7.35498C16.6274 7.28127 16.4657 7.17324 16.3295 7.03705C16.1934 6.90085 16.0853 6.73917 16.0116 6.56122C15.9379 6.38328 15.9 6.19256 15.9 5.99995V3.99995H8.1333V5.99995C8.1333 6.38894 7.97878 6.76199 7.70372 7.03704C7.42867 7.3121 7.05562 7.46662 6.66663 7.46662C6.27765 7.46662 5.9046 7.3121 5.62954 7.03704C5.35449 6.76199 5.19997 6.38894 5.19997 5.99995V3.99995H2.5333C2.37465 3.99815 2.21725 4.02818 2.0704 4.08826C1.92356 4.14835 1.79026 4.23727 1.67838 4.34977C1.5665 4.46227 1.47831 4.59607 1.41904 4.74324C1.35977 4.89042 1.33062 5.04798 1.3333 5.20662V20.1266C1.33065 20.2825 1.35873 20.4373 1.41593 20.5823C1.47313 20.7273 1.55834 20.8596 1.66668 20.9716C1.77501 21.0837 1.90437 21.1733 2.04735 21.2353C2.19032 21.2974 2.34413 21.3307 2.49997 21.3333H21.5C21.6558 21.3307 21.8096 21.2974 21.9526 21.2353C22.0956 21.1733 22.2249 21.0837 22.3333 20.9716C22.4416 20.8596 22.5268 20.7273 22.584 20.5823C22.6412 20.4373 22.6693 20.2825 22.6666 20.1266V5.20662C22.6693 5.05078 22.6412 4.89594 22.584 4.75096C22.5268 4.60597 22.4416 4.47367 22.3333 4.36162C22.2249 4.24956 22.0956 4.15995 21.9526 4.09789C21.8096 4.03584 21.6558 4.00256 21.5 3.99995ZM6.66663 17.3333H5.3333V16H6.66663V17.3333ZM6.66663 14H5.3333V12.6666H6.66663V14ZM6.66663 10.6666H5.3333V9.33329H6.66663V10.6666ZM10.6666 17.3333H9.3333V16H10.6666V17.3333ZM10.6666 14H9.3333V12.6666H10.6666V14ZM10.6666 10.6666H9.3333V9.33329H10.6666V10.6666ZM14.6666 17.3333H13.3333V16H14.6666V17.3333ZM14.6666 14H13.3333V12.6666H14.6666V14ZM14.6666 10.6666H13.3333V9.33329H14.6666V10.6666ZM18.6666 17.3333H17.3333V16H18.6666V17.3333ZM18.6666 14H17.3333V12.6666H18.6666V14ZM18.6666 10.6666H17.3333V9.33329H18.6666V10.6666Z" fill="white"/>
<path d="M6.66667 6.66671C6.84348 6.66671 7.01305 6.59647 7.13807 6.47144C7.2631 6.34642 7.33333 6.17685 7.33333 6.00004V2.00004C7.33333 1.82323 7.2631 1.65366 7.13807 1.52864C7.01305 1.40361 6.84348 1.33337 6.66667 1.33337C6.48986 1.33337 6.32029 1.40361 6.19526 1.52864C6.07024 1.65366 6 1.82323 6 2.00004V6.00004C6 6.17685 6.07024 6.34642 6.19526 6.47144C6.32029 6.59647 6.48986 6.66671 6.66667 6.66671Z" fill="white"/>
<path d="M17.3333 6.66671C17.5101 6.66671 17.6797 6.59647 17.8047 6.47144C17.9297 6.34642 18 6.17685 18 6.00004V2.00004C18 1.82323 17.9297 1.65366 17.8047 1.52864C17.6797 1.40361 17.5101 1.33337 17.3333 1.33337C17.1565 1.33337 16.9869 1.40361 16.8619 1.52864C16.7369 1.65366 16.6666 1.82323 16.6666 2.00004V6.00004C16.6666 6.17685 16.7369 6.34642 16.8619 6.47144C16.9869 6.59647 17.1565 6.66671 17.3333 6.66671Z" fill="white"/>
</g>
<defs>
<clipPath id="clip0_494_71">
<rect width="24" height="24" fill="white"/>
</clipPath>
</defs>
</svg>
