<svg width="24" height="24" viewBox="0 0 24 24" fill="none" xmlns="http://www.w3.org/2000/svg">
<path d="M3 21H5.03V15H3V18V21ZM12.45 22L9.52 21.36L6.59 20.72C6.42575 20.6824 6.27867 20.5912 6.17187 20.4609C6.06507 20.3306 6.00461 20.1684 6 20V16C5.99783 15.8279 6.05824 15.6609 6.17 15.53C6.27758 15.3927 6.42963 15.2973 6.6 15.26L11.38 14.67L16.17 14L16.32 14.55L16.47 15.1C16.4704 15.2874 16.4181 15.4712 16.3191 15.6303C16.22 15.7894 16.0783 15.9175 15.91 16L13.91 16.5L11.91 17L13.53 17.65L15.15 18.3L17.43 17.66L19.65 17C19.7463 16.9711 19.8475 16.9624 19.9473 16.9744C20.0471 16.9865 20.1434 17.019 20.23 17.07C20.3188 17.1198 20.3964 17.1872 20.4583 17.268C20.5202 17.3488 20.565 17.4413 20.59 17.54L20.78 18.3L20.98 19.07C21.0039 19.1646 21.0089 19.2629 20.9947 19.3594C20.9805 19.4559 20.9474 19.5487 20.8972 19.6323C20.847 19.7159 20.7808 19.7888 20.7023 19.8468C20.6238 19.9047 20.5347 19.9466 20.44 19.97L16.81 20.97L13.18 21.97C13.0625 22.0013 12.9416 22.0181 12.82 22.02C12.6963 22.0282 12.5721 22.0214 12.45 22ZM18.02 8.5L14.52 6.25L11.02 4V13L14.52 10.75L18.02 8.5Z" fill="black"/>
</svg>
