<svg width="24" height="24" viewBox="0 0 24 24" fill="none" xmlns="http://www.w3.org/2000/svg">
<path d="M9.28131 2.85975L9.04656 3.492L3.04656 19.9222L2.88306 20.367L3.63306 21.117L4.07781 20.9535L20.5081 14.9535L21.1403 14.7187L20.9768 14.0625C20.9768 14.0625 19.9193 9.84075 17.0393 6.96075C14.1593 4.08075 9.93756 3.02325 9.93756 3.02325L9.28131 2.85975ZM10.1956 4.71075C11.0476 4.97475 13.8226 5.90025 15.9608 8.03925C18.0998 10.1775 19.0253 12.9517 19.2893 13.8045L18.1403 14.2267C18.056 13.8677 17.9465 13.5151 17.8126 13.1715C17.3551 12.0382 16.5031 10.5495 14.9768 9.024C13.4506 7.497 11.9618 6.66825 10.8278 6.2115C10.4236 6.0495 10.0778 5.9415 9.77331 5.859L10.1956 4.71075ZM9.28131 7.266C9.53331 7.3335 9.85581 7.4295 10.2661 7.59375C11.2328 7.98375 12.5506 8.70675 13.9216 10.0785C14.3236 10.4797 14.6543 10.866 14.9528 11.25C14.5635 11.263 14.1944 11.4267 13.9234 11.7065C13.6524 11.9863 13.5006 12.3605 13.5001 12.75C13.5001 13.1478 13.6581 13.5294 13.9394 13.8107C14.2207 14.092 14.6022 14.25 15.0001 14.25C15.5536 14.25 16.0283 13.9485 16.2893 13.5C16.3216 13.5765 16.3771 13.6612 16.4063 13.7347C16.5766 14.1562 16.6673 14.49 16.7348 14.742L9.23481 17.4607C9.13926 17.2829 8.99714 17.1345 8.82366 17.0313C8.65018 16.9281 8.4519 16.8741 8.25006 16.875C8.08227 16.8748 7.91655 16.9121 7.76505 16.9842C7.61354 17.0563 7.48009 17.1614 7.37446 17.2918C7.26882 17.4221 7.19369 17.5745 7.15456 17.7376C7.11543 17.9008 7.11329 18.0707 7.14831 18.2347L4.96881 19.0312L7.59381 11.8357C7.7972 11.9398 8.02165 11.9959 8.25006 12C8.61592 12.0011 8.96957 11.8684 9.24444 11.6269C9.51931 11.3855 9.69646 11.0519 9.74255 10.6889C9.78863 10.326 9.70047 9.95871 9.49466 9.65622C9.28885 9.35373 8.97958 9.13688 8.62506 9.0465L9.28131 7.266ZM10.5001 13.125C10.2017 13.125 9.91554 13.2435 9.70456 13.4545C9.49358 13.6655 9.37506 13.9516 9.37506 14.25C9.37506 14.5484 9.49358 14.8345 9.70456 15.0455C9.91554 15.2565 10.2017 15.375 10.5001 15.375C10.7984 15.375 11.0846 15.2565 11.2956 15.0455C11.5065 14.8345 11.6251 14.5484 11.6251 14.25C11.6251 13.9516 11.5065 13.6655 11.2956 13.4545C11.0846 13.2435 10.7984 13.125 10.5001 13.125Z" fill="#FFFF00"/>
</svg>
