<svg width="20" height="20" viewBox="0 0 20 20" fill="none" xmlns="http://www.w3.org/2000/svg">
<path d="M9.16667 17.5C8.56833 17.4095 7.99528 17.25 7.4475 17.0217C6.89917 16.7939 6.38667 16.5003 5.91 16.1408L6.5 15.5417C6.90278 15.8333 7.33 16.0695 7.78167 16.25C8.23333 16.4306 8.695 16.5556 9.16667 16.625V17.5ZM10.8333 17.5V16.6567C12.2778 16.4272 13.4722 15.7675 14.4167 14.6775C15.3611 13.5875 15.8333 12.32 15.8333 10.875C15.8333 9.25001 15.2672 7.8714 14.135 6.73918C13.0028 5.60696 11.6244 5.04113 10 5.04168H9.3525L11.1025 6.79168L10.5125 7.38168L7.75667 4.62501L10.5125 1.86835L11.1025 2.46835L9.3625 4.20835H10C10.9239 4.20835 11.79 4.38224 12.5983 4.73001C13.4067 5.07779 14.1131 5.55362 14.7175 6.15751C15.3214 6.76196 15.7972 7.46835 16.145 8.27668C16.4928 9.08501 16.6667 9.95113 16.6667 10.875C16.6667 12.5639 16.1122 14.0361 15.0033 15.2917C13.8944 16.5456 12.5044 17.2817 10.8333 17.5ZM4.73333 14.965C4.36389 14.4778 4.0625 13.96 3.82917 13.4117C3.59583 12.8639 3.44444 12.2961 3.375 11.7083H4.21833C4.29833 12.1917 4.43111 12.6561 4.61667 13.1017C4.80278 13.5478 5.04167 13.9722 5.33333 14.375L4.73333 14.965ZM3.375 10.0417C3.45833 9.4189 3.61583 8.83196 3.8475 8.28085C4.07972 7.72918 4.37528 7.23057 4.73417 6.78501L5.33333 7.37501C5.04167 7.77779 4.80278 8.20224 4.61667 8.64835C4.43111 9.09446 4.29833 9.5589 4.21833 10.0417H3.375Z" fill="black"/>
</svg>
