<svg width="24" height="24" viewBox="0 0 24 24" fill="none" xmlns="http://www.w3.org/2000/svg">
<g clip-path="url(#clip0_354_66)">
<path d="M4.28575 23.1429H19.7143M4.28575 14.5714H19.7143M23.0229 5.82857C22.8486 5.10964 22.4904 4.44835 21.9834 3.90956C21.4765 3.37077 20.8383 2.97297 20.1313 2.75517C19.4243 2.53737 18.6728 2.50705 17.9506 2.66717C17.2284 2.8273 16.5602 3.17238 16.0115 3.66857C15.712 2.84521 15.1664 2.13396 14.4487 1.63136C13.7311 1.12876 12.8762 0.859158 12 0.859158C11.1239 0.859158 10.269 1.12876 9.55135 1.63136C8.83371 2.13396 8.28811 2.84521 7.98861 3.66857C7.43992 3.17238 6.7717 2.8273 6.04946 2.66717C5.32723 2.50705 4.57578 2.53737 3.86879 2.75517C3.16181 2.97297 2.52356 3.37077 2.01664 3.90956C1.50972 4.44835 1.15152 5.10964 0.977181 5.82857C0.84097 6.38961 0.819058 6.97233 0.91275 7.54201C1.00644 8.1117 1.21382 8.65671 1.52254 9.14457C1.83125 9.63244 2.23499 10.0532 2.70971 10.3818C3.18443 10.7103 3.72042 10.94 4.28575 11.0571V17.1429C4.28575 17.5975 4.46636 18.0335 4.78785 18.355C5.10935 18.6765 5.54538 18.8571 6.00004 18.8571H18C18.4547 18.8571 18.8907 18.6765 19.2122 18.355C19.5337 18.0335 19.7143 17.5975 19.7143 17.1429V11.0571C20.2797 10.94 20.8156 10.7103 21.2904 10.3818C21.7651 10.0532 22.1688 9.63244 22.4775 9.14457C22.7863 8.65671 22.9936 8.1117 23.0873 7.54201C23.181 6.97233 23.1591 6.38961 23.0229 5.82857Z" stroke="white" stroke-width="2.42857" stroke-linecap="round" stroke-linejoin="round"/>
</g>
<defs>
<clipPath id="clip0_354_66">
<rect width="24" height="24" fill="white"/>
</clipPath>
</defs>
</svg>
